<svg data-v-423bf9ae="" xmlns="http://www.w3.org/2000/svg" viewBox="0 0 316.07370659107016 163" class="iconAbove"><!----><!----><!----><g data-v-423bf9ae="" id="7464a13a-1b60-4319-866f-412dfee7a98c" fill="black" transform="matrix(5.442948341369629,0,0,5.442948341369629,-7.611628532409668,95.38837432861328)"><path d="M5.25 1.40L5.25 1.40Q6.02 1.40 6.68 1.74L6.68 1.74L6.68 1.74Q7.34 2.09 7.72 2.69L7.72 2.69L7.72 2.69Q8.11 3.29 8.11 4.05L8.11 4.05L8.11 4.05Q8.11 4.83 7.69 5.45L7.69 5.45L7.69 5.45Q7.27 6.08 6.57 6.38L6.57 6.38L6.57 6.38Q7.55 6.65 8.11 7.37L8.11 7.37L8.11 7.37Q8.68 8.09 8.68 9.16L8.68 9.16L8.68 9.16Q8.68 10.08 8.27 10.80L8.27 10.80L8.27 10.80Q7.85 11.52 7.12 11.93L7.12 11.93L7.12 11.93Q6.38 12.33 5.46 12.33L5.46 12.33L1.95 12.33L1.95 12.33Q1.69 12.33 1.55 12.23L1.55 12.23L1.55 12.23Q1.40 12.12 1.40 11.91L1.40 11.91L1.40 1.82L1.40 1.82Q1.40 1.62 1.52 1.51L1.52 1.51L1.52 1.51Q1.64 1.40 1.82 1.40L1.82 1.40L5.25 1.40ZM5.25 6.02L5.25 6.02Q6.15 6.02 6.71 5.47L6.71 5.47L6.71 5.47Q7.27 4.93 7.27 4.05L7.27 4.05L7.27 4.05Q7.27 3.19 6.71 2.72L6.71 2.72L6.71 2.72Q6.16 2.24 5.25 2.24L5.25 2.24L2.24 2.24L2.24 6.02L5.25 6.02ZM5.46 11.49L5.46 11.49Q6.15 11.49 6.69 11.19L6.69 11.19L6.69 11.19Q7.22 10.89 7.53 10.36L7.53 10.36L7.53 10.36Q7.84 9.83 7.84 9.16L7.84 9.16L7.84 9.16Q7.84 8.50 7.53 7.97L7.53 7.97L7.53 7.97Q7.22 7.45 6.69 7.15L6.69 7.15L6.69 7.15Q6.15 6.86 5.46 6.86L5.46 6.86L2.24 6.86L2.24 11.49L5.46 11.49ZM10.43 1.82L10.43 1.82Q10.43 1.62 10.55 1.51L10.55 1.51L10.55 1.51Q10.67 1.40 10.85 1.40L10.85 1.40L10.85 1.40Q11.05 1.40 11.16 1.51L11.16 1.51L11.16 1.51Q11.27 1.62 11.27 1.82L11.27 1.82L11.27 10.02L11.27 10.02Q11.27 10.67 11.54 11.08L11.54 11.08L11.54 11.08Q11.82 11.49 12.25 11.49L12.25 11.49L12.60 11.49L12.60 11.49Q12.75 11.49 12.85 11.61L12.85 11.61L12.85 11.61Q12.95 11.72 12.95 11.91L12.95 11.91L12.95 11.91Q12.95 12.10 12.84 12.21L12.84 12.21L12.84 12.21Q12.73 12.33 12.53 12.33L12.53 12.33L12.25 12.33L12.25 12.33Q11.45 12.33 10.94 11.69L10.94 11.69L10.94 11.69Q10.43 11.05 10.43 10.02L10.43 10.02L10.43 1.82ZM17.99 4.59L17.99 4.59Q19.08 4.59 19.98 5.10L19.98 5.10L19.98 5.10Q20.87 5.61 21.38 6.51L21.38 6.51L21.38 6.51Q21.90 7.41 21.90 8.51L21.90 8.51L21.90 8.51Q21.90 9.60 21.38 10.50L21.38 10.50L21.38 10.50Q20.87 11.40 19.98 11.91L19.98 11.91L19.98 11.91Q19.08 12.42 17.99 12.42L17.99 12.42L17.99 12.42Q16.88 12.42 15.99 11.91L15.99 11.91L15.99 11.91Q15.09 11.40 14.58 10.50L14.58 10.50L14.58 10.50Q14.07 9.60 14.07 8.51L14.07 8.51L14.07 8.51Q14.07 7.41 14.58 6.51L14.58 6.51L14.58 6.51Q15.09 5.61 15.99 5.10L15.99 5.10L15.99 5.10Q16.88 4.59 17.99 4.59L17.99 4.59ZM17.99 5.38L17.99 5.38Q17.12 5.38 16.42 5.79L16.42 5.79L16.42 5.79Q15.72 6.20 15.32 6.92L15.32 6.92L15.32 6.92Q14.91 7.63 14.91 8.51L14.91 8.51L14.91 8.51Q14.91 9.39 15.32 10.11L15.32 10.11L15.32 10.11Q15.72 10.82 16.42 11.23L16.42 11.23L16.42 11.23Q17.12 11.63 17.99 11.63L17.99 11.63L17.99 11.63Q18.86 11.63 19.56 11.23L19.56 11.23L19.56 11.23Q20.26 10.82 20.66 10.11L20.66 10.11L20.66 10.11Q21.06 9.39 21.06 8.51L21.06 8.51L21.06 8.51Q21.06 7.63 20.66 6.92L20.66 6.92L20.66 6.92Q20.26 6.20 19.56 5.79L19.56 5.79L19.56 5.79Q18.86 5.38 17.99 5.38L17.99 5.38ZM26.61 4.59L26.61 4.59Q28.38 4.59 29.29 5.85L29.29 5.85L29.29 5.85Q29.37 5.95 29.37 6.09L29.37 6.09L29.37 6.09Q29.37 6.29 29.15 6.41L29.15 6.41L29.15 6.41Q29.01 6.47 28.94 6.47L28.94 6.47L28.94 6.47Q28.73 6.47 28.59 6.29L28.59 6.29L28.59 6.29Q27.87 5.38 26.59 5.38L26.59 5.38L26.59 5.38Q25.73 5.38 25.23 5.75L25.23 5.75L25.23 5.75Q24.72 6.12 24.72 6.66L24.72 6.66L24.72 6.66Q24.72 7.22 25.21 7.56L25.21 7.56L25.21 7.56Q25.69 7.90 26.82 8.06L26.82 8.06L26.82 8.06Q28.31 8.27 28.96 8.86L28.96 8.86L28.96 8.86Q29.61 9.44 29.61 10.26L29.61 10.26L29.61 10.26Q29.61 10.91 29.20 11.40L29.20 11.40L29.20 11.40Q28.78 11.89 28.10 12.15L28.10 12.15L28.10 12.15Q27.41 12.42 26.60 12.42L26.60 12.42L26.60 12.42Q25.79 12.42 25.02 12.13L25.02 12.13L25.02 12.13Q24.25 11.84 23.74 11.26L23.74 11.26L23.74 11.26Q23.65 11.14 23.65 11.00L23.65 11.00L23.65 11.00Q23.65 10.81 23.83 10.68L23.83 10.68L23.83 10.68Q23.91 10.61 24.07 10.61L24.07 10.61L24.07 10.61Q24.26 10.61 24.39 10.77L24.39 10.77L24.39 10.77Q25.09 11.62 26.64 11.62L26.64 11.62L26.64 11.62Q27.75 11.62 28.27 11.23L28.27 11.23L28.27 11.23Q28.80 10.84 28.80 10.22L28.80 10.22L28.80 10.22Q28.80 9.11 26.66 8.81L26.66 8.81L26.66 8.81Q25.30 8.61 24.61 8.06L24.61 8.06L24.61 8.06Q23.91 7.52 23.91 6.75L23.91 6.75L23.91 6.75Q23.91 5.73 24.66 5.16L24.66 5.16L24.66 5.16Q25.41 4.59 26.61 4.59L26.61 4.59ZM34.12 4.59L34.12 4.59Q35.88 4.59 36.79 5.85L36.79 5.85L36.79 5.85Q36.88 5.95 36.88 6.09L36.88 6.09L36.88 6.09Q36.88 6.29 36.65 6.41L36.65 6.41L36.65 6.41Q36.51 6.47 36.44 6.47L36.44 6.47L36.44 6.47Q36.23 6.47 36.09 6.29L36.09 6.29L36.09 6.29Q35.38 5.38 34.09 5.38L34.09 5.38L34.09 5.38Q33.24 5.38 32.73 5.75L32.73 5.75L32.73 5.75Q32.23 6.12 32.23 6.66L32.23 6.66L32.23 6.66Q32.23 7.22 32.71 7.56L32.71 7.56L32.71 7.56Q33.19 7.90 34.33 8.06L34.33 8.06L34.33 8.06Q35.81 8.27 36.46 8.86L36.46 8.86L36.46 8.86Q37.11 9.44 37.11 10.26L37.11 10.26L37.11 10.26Q37.11 10.91 36.70 11.40L36.70 11.40L36.70 11.40Q36.29 11.89 35.60 12.15L35.60 12.15L35.60 12.15Q34.92 12.42 34.10 12.42L34.10 12.42L34.10 12.42Q33.29 12.42 32.52 12.13L32.52 12.13L32.52 12.13Q31.75 11.84 31.25 11.26L31.25 11.26L31.25 11.26Q31.15 11.14 31.15 11.00L31.15 11.00L31.15 11.00Q31.15 10.81 31.33 10.68L31.33 10.68L31.33 10.68Q31.42 10.61 31.57 10.61L31.57 10.61L31.57 10.61Q31.77 10.61 31.89 10.77L31.89 10.77L31.89 10.77Q32.59 11.62 34.15 11.62L34.15 11.62L34.15 11.62Q35.25 11.62 35.78 11.23L35.78 11.23L35.78 11.23Q36.30 10.84 36.30 10.22L36.30 10.22L36.30 10.22Q36.30 9.11 34.16 8.81L34.16 8.81L34.16 8.81Q32.80 8.61 32.11 8.06L32.11 8.06L32.11 8.06Q31.42 7.52 31.42 6.75L31.42 6.75L31.42 6.75Q31.42 5.73 32.16 5.16L32.16 5.16L32.16 5.16Q32.91 4.59 34.12 4.59L34.12 4.59ZM42.50 4.59L42.50 4.59Q43.60 4.59 44.49 5.10L44.49 5.10L44.49 5.10Q45.39 5.61 45.90 6.51L45.90 6.51L45.90 6.51Q46.41 7.41 46.41 8.51L46.41 8.51L46.41 8.51Q46.41 9.60 45.90 10.50L45.90 10.50L45.90 10.50Q45.39 11.40 44.49 11.91L44.49 11.91L44.49 11.91Q43.60 12.42 42.50 12.42L42.50 12.42L42.50 12.42Q41.40 12.42 40.50 11.91L40.50 11.91L40.50 11.91Q39.61 11.40 39.09 10.50L39.09 10.50L39.09 10.50Q38.58 9.60 38.58 8.51L38.58 8.51L38.58 8.51Q38.58 7.41 39.09 6.51L39.09 6.51L39.09 6.51Q39.61 5.61 40.50 5.10L40.50 5.10L40.50 5.10Q41.40 4.59 42.50 4.59L42.50 4.59ZM42.50 5.38L42.50 5.38Q41.64 5.38 40.94 5.79L40.94 5.79L40.94 5.79Q40.24 6.20 39.83 6.92L39.83 6.92L39.83 6.92Q39.42 7.63 39.42 8.51L39.42 8.51L39.42 8.51Q39.42 9.39 39.83 10.11L39.83 10.11L39.83 10.11Q40.24 10.82 40.94 11.23L40.94 11.23L40.94 11.23Q41.64 11.63 42.50 11.63L42.50 11.63L42.50 11.63Q43.37 11.63 44.07 11.23L44.07 11.23L44.07 11.23Q44.77 10.82 45.17 10.11L45.17 10.11L45.17 10.11Q45.57 9.39 45.57 8.51L45.57 8.51L45.57 8.51Q45.57 7.63 45.17 6.92L45.17 6.92L45.17 6.92Q44.77 6.20 44.07 5.79L44.07 5.79L44.07 5.79Q43.37 5.38 42.50 5.38L42.50 5.38ZM56.59 4.58L56.59 4.58Q57.43 4.58 58.09 5.00L58.09 5.00L58.09 5.00Q58.74 5.42 59.11 6.17L59.11 6.17L59.11 6.17Q59.47 6.92 59.47 7.87L59.47 7.87L59.47 11.91L59.47 11.91Q59.47 12.10 59.36 12.21L59.36 12.21L59.36 12.21Q59.25 12.33 59.05 12.33L59.05 12.33L59.05 12.33Q58.87 12.33 58.75 12.21L58.75 12.21L58.75 12.21Q58.63 12.10 58.63 11.91L58.63 11.91L58.63 7.87L58.63 7.87Q58.63 6.79 58.06 6.10L58.06 6.10L58.06 6.10Q57.48 5.42 56.59 5.42L56.59 5.42L56.59 5.42Q55.61 5.42 55.01 6.06L55.01 6.06L55.01 6.06Q54.40 6.71 54.43 7.77L54.43 7.77L54.43 7.87L54.43 11.91L54.43 11.91Q54.43 12.10 54.32 12.21L54.32 12.21L54.32 12.21Q54.21 12.33 54.01 12.33L54.01 12.33L54.01 12.33Q53.83 12.33 53.71 12.21L53.71 12.21L53.71 12.21Q53.59 12.10 53.59 11.91L53.59 11.91L53.59 7.87L53.59 7.87Q53.59 6.79 53.02 6.10L53.02 6.10L53.02 6.10Q52.44 5.42 51.55 5.42L51.55 5.42L51.55 5.42Q50.58 5.42 49.97 6.03L49.97 6.03L49.97 6.03Q49.35 6.65 49.35 7.63L49.35 7.63L49.35 11.91L49.35 11.91Q49.35 12.10 49.24 12.21L49.24 12.21L49.24 12.21Q49.13 12.33 48.93 12.33L48.93 12.33L48.93 12.33Q48.75 12.33 48.63 12.21L48.63 12.21L48.63 12.21Q48.51 12.10 48.51 11.91L48.51 11.91L48.51 5.10L48.51 5.10Q48.51 4.90 48.63 4.79L48.63 4.79L48.63 4.79Q48.75 4.68 48.93 4.68L48.93 4.68L48.93 4.68Q49.13 4.68 49.24 4.79L49.24 4.79L49.24 4.79Q49.35 4.90 49.35 5.10L49.35 5.10L49.35 5.64L49.35 5.64Q49.74 5.14 50.32 4.86L50.32 4.86L50.32 4.86Q50.89 4.58 51.55 4.58L51.55 4.58L51.55 4.58Q52.36 4.58 53.00 4.98L53.00 4.98L53.00 4.98Q53.65 5.38 54.03 6.08L54.03 6.08L54.03 6.08Q54.40 5.38 55.08 4.98L55.08 4.98L55.08 4.98Q55.75 4.58 56.59 4.58L56.59 4.58Z"></path></g><!----><g data-v-423bf9ae="" id="8c2aaf84-2383-430f-9dc2-f6155ab79732" transform="matrix(1.4876033067703247,0,0,1.4876033067703247,94.10753631591797,-19.388364791870117)" stroke="none" fill="black"><path d="M74.4 22c-2.1-3-5.1-5.5-8.4-6.5-.7-.1-1.3-.2-2-.3-1.8-.1-3.6.2-5.1.9V16c-.3.2-.6.3-.9.5-1.1.7-2.4 2.1-1.7 5.6 1.3 6.3 7.8 12.9 9.9 13.2.1 0 .8-.1 1-.5.1-.1 1.2-2.5-4.5-9.8-1.1-1.4-.8-3.3.5-4.4 1.4-1.1 3.3-.8 4.4.5 5.4 6.9 7.2 12.5 5.2 16.5-1.2 2.5-3.8 4-6.8 3.9-5.6-.1-13.3-9.5-15.4-16.8-1.4-4.7-.7-8.7 1.9-11.6-.1 0-.2.1-.3.1-8.6 4.8-21.2 15.5-18.5 27-1.8 1.2-4.1 2.9-6.7 4.9 0-2.5-.4-5.2-1.2-8.3-.3-1.5-1.4-2.7-2.8-3.2-1.4-.6-3-.5-4.2.3-4.5 2.7-11.7 10.9-7 22.1.4 1 1.1 1.8 2 2.3-2.2 2.9-4 6-5 9.2-.8 2.5.6 5.1 3 5.9.5.2 1 .2 1.4.2 2 0 3.8-1.3 4.5-3.3.4-1.2 1-2.4 1.7-3.6 1.4.8 3.1 1.4 5.2 1.4 3.9 0 8.2-1.9 13.3-5.8 1.2-.9 1.9-2.3 1.8-3.8 0-1.5-.8-2.9-2-3.7-.3-.2-2.1-1.4-4.8-2.2 1.9-1.5 3.7-2.9 5.3-4 1.5 1.6 3.4 3 5.9 3.8 1.5.5 3.2.7 5 .7 4.8 0 10.5-1.8 17.7-5.5 3.6-1.9 6.2-3.9 8.1-5.9 5-6 3.6-13.9-.5-19.7z"></path></g><!----></svg>